<?xml version="1.0" encoding="UTF-8" standalone="no"?>
<!-- Created with Inkscape (http://www.inkscape.org/) -->

<svg
   width="310mm"
   height="70mm"
   viewBox="0 0 310 70"
   version="1.1"
   id="svg5"
   inkscape:version="1.1.1 (3bf5ae0d25, 2021-09-20)"
   sodipodi:docname="Cwago_23_1_Title.svg"
   inkscape:export-filename="D:\User\itota\Projects\Cwago\resources\Cwago_23_1_Title.png"
   inkscape:export-xdpi="130.048"
   inkscape:export-ydpi="130.048"
   xmlns:inkscape="http://www.inkscape.org/namespaces/inkscape"
   xmlns:sodipodi="http://sodipodi.sourceforge.net/DTD/sodipodi-0.dtd"
   xmlns="http://www.w3.org/2000/svg"
   xmlns:svg="http://www.w3.org/2000/svg">
  <sodipodi:namedview
     id="namedview7"
     pagecolor="#505050"
     bordercolor="#eeeeee"
     borderopacity="1"
     inkscape:pageshadow="0"
     inkscape:pageopacity="0"
     inkscape:pagecheckerboard="0"
     inkscape:document-units="mm"
     showgrid="false"
     inkscape:zoom="0.25"
     inkscape:cx="640"
     inkscape:cy="178"
     inkscape:window-width="1280"
     inkscape:window-height="961"
     inkscape:window-x="-8"
     inkscape:window-y="32"
     inkscape:window-maximized="1"
     inkscape:current-layer="layer1"
     showguides="false" />
  <defs
     id="defs2" />
  <g
     inkscape:label="Layer 1"
     inkscape:groupmode="layer"
     id="layer1">
    <path
       id="path3111"
       style="fill:#000000;fill-opacity:1;stroke:none;stroke-width:0.999999px;stroke-linecap:butt;stroke-linejoin:miter;stroke-opacity:1"
       d="m 188.97656,45.353516 v 77.480464 l 11.33789,5.66993 7.5586,34.01562 -18.89649,7.55859 v 86.92969 l 41.57422,-37.79492 -22.67773,-86.92969 18.89843,9.44922 37.79493,47.24414 75.59179,-37.79492 V 132.2832 h 18.89649 L 370.39453,113.38672 340.1582,94.488281 Z m 37.79492,18.898437 28.34571,9.449219 v 49.132808 l -24.56641,13.22852 -22.67773,-11.33789 18.89843,-11.33789 z m 37.79493,12.283203 18.89843,5.669922 v 50.078392 l -39.68531,20.7874 -8.50394,-10.3937 29.29082,-17.00788 z m 28.34765,9.449219 43.46485,14.173825 -15.11914,17.00782 -3.7793,26.45507 -51.02344,37.79688 -18.89797,-22.67781 45.355,-22.67717 z"
       transform="scale(0.26458333)"
       sodipodi:nodetypes="cccccccccccccccccccccccccccccccccccccc" />
    <path
       id="path3111-1"
       style="fill:#000000;fill-opacity:1;stroke:none;stroke-width:0.264583px;stroke-linecap:butt;stroke-linejoin:miter;stroke-opacity:1"
       d="m 50.000048,11.999784 v 20.500039 l -2.999816,1.500169 -1.99988,8.999966 4.999696,1.999877 V 67.999982 L 39.000203,58.000076 45.000352,34.99993 40.000143,37.500036 30.000234,50.000048 9.9999065,40.000142 V 34.99993 h -4.999697 l -3.000332,-4.999694 8.000029,-5.000212 z m -9.999905,5.000212 -7.499803,2.500105 v 12.999722 l 6.499863,3.500046 6.000149,-2.999816 -5.000209,-2.999817 z m -9.999909,3.24993 -5.000209,1.500167 v 13.249908 l 10.500071,5.5 2.250001,-2.75 -7.749863,-4.500002 z m -7.500315,2.500106 -11.500075,3.750158 4.000272,4.499986 0.99994,6.99957 L 29.500008,48.000171 34.500096,42 22.499919,35.999999 Z"
       sodipodi:nodetypes="cccccccccccccccccccccccccccccccccccccc" />
    <path
       style="fill:#000000;fill-opacity:1;stroke:none;stroke-width:0.264583px;stroke-linecap:butt;stroke-linejoin:miter;stroke-opacity:1"
       d="M 51,10.000026 70,7.0000257 c 0,0 -6.905086,-5.9581074 -13,-4 -6.094914,1.9581074 -6,7.0000003 -6,7.0000003 z"
       id="path5845"
       sodipodi:nodetypes="cczc" />
    <path
       style="fill:#000000;fill-opacity:1;stroke:none;stroke-width:0.264583px;stroke-linecap:butt;stroke-linejoin:miter;stroke-opacity:1"
       d="M 49,10.000026 30,7.0000259 c 0,0 6.905086,-5.958108 13,-4 6.094914,1.958107 6,7.0000001 6,7.0000001 z"
       id="path5845-1"
       sodipodi:nodetypes="cczc" />
    <text
       xml:space="preserve"
       style="font-style:normal;font-variant:normal;font-weight:bold;font-stretch:normal;font-size:77.6111px;line-height:1.25;font-family:Consolas;-inkscape-font-specification:'Consolas Bold';letter-spacing:0px;word-spacing:0px;fill:#000000;fill-opacity:1;stroke-width:0.264583"
       x="96.959824"
       y="52.336094"
       id="text4850"><tspan
         sodipodi:role="line"
         id="tspan4848"
         style="font-style:normal;font-variant:normal;font-weight:bold;font-stretch:normal;font-size:77.6111px;font-family:Consolas;-inkscape-font-specification:'Consolas Bold';fill:#000000;fill-opacity:1;stroke-width:0.264583"
         x="96.959824"
         y="52.336094">cwago</tspan></text>
  </g>
</svg>
